<?xml version="1.0" encoding="UTF-8"?>
<svg id="Ebene_1" xmlns="http://www.w3.org/2000/svg" version="1.1" viewBox="0 0 389.32 89.86">
  <!-- Generator: Adobe Illustrator 29.6.1, SVG Export Plug-In . SVG Version: 2.1.1 Build 9)  -->
  <defs>
    <style>
      .st0 {
        fill: #fff;
      }
    </style>
  </defs>
  <g>
    <path class="st0" d="M125.89.77h28.09v6.75h-20.13v9.43h17.06v6.8h-17.06v16.24h-7.95V.77Z"/>
    <path class="st0" d="M158.47.77h17.99c7.57,0,12.62,4.39,12.62,10.92,0,4.61-2.14,8.12-7.19,9.49v.16c3.62,1.04,5.48,3.13,5.98,7.9.55,5.54.33,9.77,1.7,10.37v.38h-7.63c-.99-.44-1.1-4.83-1.43-9.05-.33-4.28-2.74-6.69-7.68-6.69h-6.42v15.75h-7.95V.77ZM166.43,18.1h8.45c4.33,0,6.47-2.25,6.47-5.38s-2.03-5.54-6.25-5.54h-8.67v10.92Z"/>
    <path class="st0" d="M205.26.77h8.23l13.83,39.22h-8.28l-2.63-8.34h-14.15l-2.58,8.34h-8.07L205.26.77ZM204.1,25.56h10.37l-3.51-11.3c-.66-2.08-1.59-6.03-1.59-6.03h-.11s-.99,3.95-1.65,6.03l-3.51,11.3Z"/>
    <path class="st0" d="M226.7,20.52c0-11.63,7.24-20.52,18.82-20.52,9.66,0,15.36,5.76,16.18,13.22h-7.9c-.71-3.95-3.68-6.53-8.28-6.53-7.24,0-10.7,6.03-10.7,13.83s4.17,13.77,10.75,13.77c4.66,0,7.95-2.8,8.45-6.91h7.79c-.22,3.45-1.7,6.8-4.33,9.27-2.69,2.52-6.47,4.17-11.9,4.17-11.03,0-18.87-8.5-18.87-20.3Z"/>
    <path class="st0" d="M265.91.77h7.95v15.64l15.09-15.64h9.87l-15.36,15.69,16.35,23.53h-9.33l-12.62-18.32-4,4.06v14.26h-7.95V.77Z"/>
    <path class="st0" d="M302.93.77h7.95v39.22h-7.95V.77Z"/>
    <path class="st0" d="M316.97.77h8.06l13.06,21.89c1.26,2.14,2.74,5.49,2.74,5.49h.11s-.22-4.06-.22-6.8V.77h7.84v39.22h-7.68l-13.39-21.67c-1.26-2.09-2.8-5.43-2.8-5.43h-.11s.22,4.11.22,6.86v20.24h-7.85V.77Z"/>
    <path class="st0" d="M383.06,34.73h-.11c-2.69,4.5-6.36,6.09-11.03,6.09-5.92,0-10.53-2.14-13.77-5.71-3.24-3.62-5.1-8.67-5.1-14.59,0-6.53,2.3-12.23,6.42-16.02,3.18-2.91,7.35-4.5,12.62-4.5,9.87,0,15.52,5.43,16.79,13.11h-7.79c-.88-3.79-3.79-6.53-8.83-6.53-7.41,0-11.08,6.14-11.08,13.94s4.22,13.88,10.97,13.88c6.09,0,10.09-4.56,10.09-8.89v-.22h-9.43v-6.14h16.51v20.85h-5.98l-.27-5.27Z"/>
  </g>
  <g>
    <path class="st0" d="M124.14,76.86h7.79c.55,4.72,3.24,6.58,8.83,6.58,4.06,0,7.63-1.43,7.63-5.05,0-3.84-3.73-4.61-9.71-5.98-7.02-1.59-13.44-3.46-13.44-11.63,0-7.74,6.31-11.74,15.03-11.74s14.54,4.33,15.14,12.23h-7.63c-.44-3.95-3.51-5.92-7.57-5.92-4.28,0-7.08,1.81-7.08,4.61,0,3.18,2.74,4.12,8.56,5.38,8.07,1.76,14.65,3.68,14.65,12.12,0,7.95-6.42,12.4-15.25,12.4-10.64,0-16.68-4.72-16.95-13Z"/>
    <path class="st0" d="M157.43,49.76h31.54v6.69h-11.79v32.53h-7.95v-32.53h-11.79v-6.69Z"/>
    <path class="st0" d="M192.64,76.36v-26.61h7.95v26.61c0,4.06,2.03,6.91,7.35,6.91,5.05,0,7.41-2.96,7.41-7.02v-26.5h7.95v26.61c0,8.39-5.16,13.27-15.2,13.27s-15.47-4.77-15.47-13.27Z"/>
    <path class="st0" d="M229,49.76h15.31c10.48,0,17.23,8.45,17.23,20.02,0,6.36-2.14,11.96-6.25,15.41-2.91,2.41-6.69,3.79-11.63,3.79h-14.65v-39.22ZM243.1,82.12c7.46,0,10.37-4.55,10.37-12.34s-3.4-13.22-10.15-13.22h-6.36v25.56h6.14Z"/>
    <path class="st0" d="M265.91,49.76h7.95v39.22h-7.95v-39.22Z"/>
    <path class="st0" d="M278.25,69.45c0-11.74,7.35-20.46,18.93-20.46s18.87,8.72,18.87,20.46-7.3,20.41-18.87,20.41-18.93-8.67-18.93-20.41ZM307.93,69.45c0-7.84-3.51-13.93-10.7-13.93s-10.86,6.09-10.86,13.93,3.68,13.88,10.86,13.88,10.7-6.09,10.7-13.88Z"/>
    <path class="st0" d="M318.61,76.86h7.79c.55,4.72,3.24,6.58,8.83,6.58,4.06,0,7.63-1.43,7.63-5.05,0-3.84-3.73-4.61-9.71-5.98-7.02-1.59-13.44-3.46-13.44-11.63,0-7.74,6.31-11.74,15.03-11.74s14.54,4.33,15.14,12.23h-7.63c-.44-3.95-3.51-5.92-7.57-5.92-4.28,0-7.08,1.81-7.08,4.61,0,3.18,2.74,4.12,8.56,5.38,8.07,1.76,14.65,3.68,14.65,12.12,0,7.95-6.42,12.4-15.25,12.4-10.64,0-16.68-4.72-16.95-13Z"/>
  </g>
  <g>
    <path class="st0" d="M58.33,89.78c-14.64,0-26.55-11.91-26.55-26.55,0-1.47.13-2.96.38-4.44-3.39-3.79-5.92-8.28-7.4-13.12-2.12.84-4.31,1.27-6.53,1.27C8.18,46.93,0,38.76,0,28.72S8.18,10.49,18.22,10.49c3.16,0,6.23.83,8.98,2.41C32.06,4.9,40.62.01,50,.01h16.67c9.53,0,18.14,4.99,22.97,13.15,2.85-1.75,6.05-2.67,9.38-2.67,10.05,0,18.22,8.18,18.22,18.22s-8.17,18.22-18.22,18.22c-2.39,0-4.78-.5-7.03-1.46-1.47,4.91-4.02,9.46-7.47,13.31.25,1.48.38,2.97.38,4.44,0,14.64-11.91,26.55-26.55,26.55ZM27.32,40.01l.58,2.49c1.25,5.37,3.93,10.34,7.74,14.36l.69.73-.21.99c-.32,1.54-.48,3.11-.48,4.64,0,12.51,10.18,22.69,22.69,22.69s22.69-10.18,22.69-22.69c0-1.53-.16-3.1-.48-4.64l-.21-.99.69-.73c3.88-4.1,6.58-9.16,7.8-14.62l.58-2.61,2.29,1.37c2.29,1.37,4.75,2.07,7.31,2.07,7.91,0,14.35-6.44,14.35-14.35s-6.44-14.36-14.35-14.36c-3.19,0-6.25,1.09-8.85,3.14l-1.88,1.49-1.05-2.16c-3.89-7.99-11.77-12.96-20.56-12.96h-16.67c-8.63,0-16.45,4.85-20.4,12.66l-1.04,2.05-1.84-1.37c-2.52-1.87-5.45-2.86-8.5-2.86-7.92,0-14.36,6.44-14.36,14.36s6.44,14.35,14.36,14.35c2.34,0,4.65-.61,6.86-1.83l2.23-1.23Z"/>
    <path class="st0" d="M58.33,80.27c-7.87,0-14.28-6.4-14.28-14.27,0-.95.77-1.72,1.72-1.72s1.72.77,1.72,1.72c0,5.97,4.86,10.83,10.84,10.83s10.83-4.86,10.83-10.83c0-.95.77-1.72,1.72-1.72s1.72.77,1.72,1.72c0,7.87-6.4,14.27-14.27,14.27Z"/>
  </g>
</svg>